:SAMPLES-PER-SECOND 30
:FULLY-SPECIFIED
:DEGREES
447
root  15.1892 39.1751 -3.57966 -2.72345 82.0958 -0.912933
RightUpLeg  0.890151 -8.5845 -0.528234
RightLeg  14.573 0.0602221 0.675374
RightFoot  -13.1551 -0.128563 -2.53961
RightToes  5.23868e-010 0 -3.6325e-017
Spine  9.37974 -1.28345 12.0161
Spine1  9.61215 0.822794 -3.69743
HEad  -9.67451 2.27107 -4.88885
LeftShoulder1  -0.221893 4.08552 -32.009
LeftArm  -3.53268 13.0974 -41.0143
LeftForeArm  24.1717 -32.8082 -5.86927
LeftHand  -0.0286046 1.66018 0.63704
RightShoulder  -0.613089 -5.32012 27.0291
RightArm  7.34465 3.63211 44.3671
RightForeArm  -2.48577 33.2697 7.52869
RightHand  -0.691698 5.18722 -7.8822
LeftUpLeg  -20.5598 1.41993 3.20404
LeftLeg  37.6651 -0.0703148 0.335141
LeftFoot  -3.21095 0.368027 -4.9111
LeftToes  -4.9204e-010 1.02043e-011 -1.81609e-011
448
root  16.3181 39.1196 -3.21785 -2.11328 81.6462 0.262054
RightUpLeg  4.17595 -8.59358 -0.734774
RightLeg  13.1436 0.552747 0.577043
RightFoot  -14.482 -0.156516 -2.12107
RightToes  5.23868e-010 0 -3.6325e-017
Spine  8.92962 -0.945559 12.0405
Spine1  10.1295 1.26685 -4.62911
HEad  -9.49521 2.49592 -4.9613
LeftShoulder1  -0.141702 3.87906 -31.6306
LeftArm  -4.6941 14.1515 -41.0293
LeftForeArm  22.0009 -31.9925 -5.79162
LeftHand  -0.0416255 2.07405 1.06328
RightShoulder  -0.612447 -5.32922 26.8249
RightArm  5.33158 6.37505 44.9282
RightForeArm  -1.74654 35.9997 8.25965
RightHand  -0.718619 5.11941 -8.22519
LeftUpLeg  -20.7171 1.4038 2.46375
LeftLeg  28.4074 -2.85056 -1.31057
LeftFoot  -3.45973 0.407742 -5.60307
LeftToes  -4.9204e-010 1.02043e-011 -1.81609e-011
449
root  17.4642 39.0547 -2.86887 -1.36487 81.0918 1.45224
RightUpLeg  7.36004 -8.62007 -1.08354
RightLeg  11.6749 1.12514 0.635889
RightFoot  -15.5034 -0.18067 -2.08911
RightToes  5.23868e-010 0 -3.6325e-017
Spine  8.59691 -0.576407 11.785
Spine1  10.4189 1.72656 -5.49983
HEad  -9.28052 2.50162 -4.67467
LeftShoulder1  -0.0739551 3.70092 -31.4327
LeftArm  -6.3515 15.4465 -41.087
LeftForeArm  19.7214 -31.6955 -5.84901
LeftHand  -0.0669313 2.17104 2.02261
RightShoulder  -0.634992 -5.38909 26.9728
RightArm  4.26072 9.29813 45.1305
RightForeArm  -1.16271 38.4297 8.96202
RightHand  -0.721433 5.22538 -8.17152
LeftUpLeg  -20.0483 2.3501 1.56809
LeftLeg  17.7239 -4.71934 -1.41195
LeftFoot  -3.05421 0.503116 -6.69578
LeftToes  -4.9204e-010 1.02043e-011 -1.81609e-011
450
root  18.6937 38.9417 -2.48668 -0.438446 81.077 2.87131
RightUpLeg  10.9009 -8.54592 -1.35805
RightLeg  10.0233 0.970602 0.486764
RightFoot  -16.4042 -0.203972 -2.09066
RightToes  5.23868e-010 0 -3.6325e-017
Spine  7.37842 -0.349863 10.8163
Spine1  11.9278 1.88025 -5.75398
HEad  -9.21132 2.87913 -4.27027
LeftShoulder1  -0.0658985 3.67863 -31.5768
LeftArm  -7.99543 16.5913 -40.6616
LeftForeArm  17.6901 -32.7476 -6.2307
LeftHand  -0.0463453 2.77303 1.44226
RightShoulder  -0.604948 -5.31442 26.6824
RightArm  3.25203 11.9728 46.0368
RightForeArm  -1.9415 40.4562 9.67366
RightHand  -0.79128 5.12212 -9.00906
LeftUpLeg  -18.6962 2.81522 0.673483
LeftLeg  6.86922 -2.59995 -0.57513
LeftFoot  -2.64588 0.536118 -6.82979
LeftToes  -4.9204e-010 1.02043e-011 -1.81609e-011
451
root  19.9697 38.7211 -2.14679 -0.842194 81.2532 3.16312
RightUpLeg  14.355 -8.43425 -1.49243
RightLeg  9.13276 0.635611 0.277232
RightFoot  -17.6553 -0.232059 -2.06875
RightToes  5.23868e-010 0 -3.6325e-017
Spine  6.85088 -0.333716 10.3565
Spine1  12.7387 2.02134 -6.31935
HEad  -8.78903 3.12403 -4.24018
LeftShoulder1  -0.083966 3.72661 -31.587
LeftArm  -9.69935 17.8019 -40.4495
LeftForeArm  16.7446 -34.5877 -6.76574
LeftHand  -0.0446658 2.75713 1.35173
RightShoulder  -0.576401 -5.25033 26.2474
RightArm  2.33406 13.8096 46.9261
RightForeArm  -0.719048 42.9947 10.4908
RightHand  -0.653635 4.20148 -8.17941
LeftUpLeg  -17.4927 2.76697 0.326023
LeftLeg  -0.753321 3.38493 -1.18649
LeftFoot  -1.62004 0.681803 -7.88906
LeftToes  -4.9204e-010 1.02043e-011 -1.81609e-011
452
root  21.3061 38.3386 -1.83279 -1.62878 81.6368 3.11893
RightUpLeg  17.2665 -8.61274 -1.79378
RightLeg  9.92163 0.591058 0.286873
RightFoot  -19.9222 -0.232742 -1.29605
RightToes  5.23868e-010 0 -3.6325e-017
Spine  6.47809 -0.271965 9.89515
Spine1  13.3959 2.17267 -6.64497
HEad  -8.59023 2.5904 -3.47419
LeftShoulder1  -0.0708024 3.69196 -31.3933
LeftArm  -11.0376 18.2111 -40.4418
LeftForeArm  15.7317 -36.57 -7.37125
LeftHand  -0.0454234 2.81768 1.40462
RightShoulder  -0.525441 -5.11534 25.8112
RightArm  1.03236 14.9108 47.8161
RightForeArm  -0.0610833 45.8251 11.5542
RightHand  -0.673176 4.36464 -8.2756
LeftUpLeg  -17.2912 2.91699 -0.293635
LeftLeg  -2.56461 8.65953 -2.09053
LeftFoot  -1.13878 0.79291 -8.79456
LeftToes  -4.9204e-010 1.02043e-011 -1.81609e-011
453
root  22.7297 37.8895 -1.53524 -2.45148 82.4651 2.84927
RightUpLeg  19.7919 -8.94779 -2.04469
RightLeg  11.5121 0.426887 0.315654
RightFoot  -22.06 -0.17481 -0.294662
RightToes  5.23868e-010 0 -3.6325e-017
Spine  6.10127 -0.210525 10.0635
Spine1  13.7315 2.52978 -7.56864
HEad  -8.05305 1.53658 -2.53689
LeftShoulder1  0.00121006 3.50099 -30.7997
LeftArm  -11.9026 17.5178 -40.6187
LeftForeArm  15.7093 -38.5058 -7.93588
LeftHand  -0.0528336 2.483 1.60881
RightShoulder  -0.481047 -4.98759 25.5744
RightArm  -0.397724 15.2032 48.12
RightForeArm  0.313525 48.8499 12.8406
RightHand  -0.7218 4.74572 -8.5433
LeftUpLeg  -18.2902 2.91529 -1.29766
LeftLeg  1.37623 11.6132 -1.8389
LeftFoot  -0.854467 0.632788 -6.71365
LeftToes  -4.9204e-010 1.02043e-011 -1.81609e-011
